HIERARCHY
ROOT Hips
{
	OFFSET 0.000000 0.000000 0.000000 
	CHANNELS 6 Xposition Yposition Zposition Zrotation Yrotation Xrotation
	JOINT LeftUpLeg
	{
		OFFSET 1.363060 -1.794630 0.839290 
		CHANNELS 3 Zrotation Yrotation Xrotation
		JOINT LeftLeg
		{
			OFFSET 2.448110 -6.726130 0.000000 
			CHANNELS 3 Zrotation Yrotation Xrotation
			JOINT LeftFoot
			{
				OFFSET 2.562200 -7.039590 0.000000 
				CHANNELS 3 Zrotation Yrotation Xrotation
				JOINT LeftToeBase
				{
					OFFSET 0.157640 -0.433110 2.322550 
					CHANNELS 3 Zrotation Yrotation Xrotation
					End Site
					{
						OFFSET 0.000000 0.000000 0.000000 
					}
				}
			}
		}
	}
	JOINT RightUpLeg
	{
		OFFSET -1.305520 -1.794630 0.839290 
		CHANNELS 3 Zrotation Yrotation Xrotation
		JOINT RightLeg
		{
			OFFSET -2.542530 -6.985550 0.000000 
			CHANNELS 3 Zrotation Yrotation Xrotation
			JOINT RightFoot
			{
				OFFSET -2.568260 -7.056230 0.000000 
				CHANNELS 3 Zrotation Yrotation Xrotation
				JOINT RightToeBase
				{
					OFFSET -0.164730 -0.452590 2.363150 
					CHANNELS 3 Zrotation Yrotation Xrotation
					End Site
					{
						OFFSET 0.000000 0.000000 0.000000 
					}
				}
			}
		}
	}
	JOINT Spine
	{
		OFFSET 0.028270 2.035590 -0.193380 
		CHANNELS 3 Zrotation Yrotation Xrotation
		JOINT Spine1
		{
			OFFSET 0.056720 2.048850 -0.042750 
			CHANNELS 3 Zrotation Yrotation Xrotation
			JOINT Neck1
			{
				OFFSET -0.054170 1.746240 0.172020 
				CHANNELS 3 Zrotation Yrotation Xrotation
				JOINT Head
				{
					OFFSET 0.104070 1.761360 -0.123970 
					CHANNELS 3 Zrotation Yrotation Xrotation
					End Site
					{
						OFFSET 0.000000 0.000000 0.000000 
					}
				}
			}
			JOINT LeftArm
			{
				OFFSET 3.362410 1.200890 -0.311210 
				CHANNELS 3 Zrotation Yrotation Xrotation
				JOINT LeftForeArm
				{
					OFFSET 4.983000 -0.000000 -0.000000 
					CHANNELS 3 Zrotation Yrotation Xrotation
					JOINT LeftHand
					{
						OFFSET 3.483560 -0.000000 -0.000000 
						CHANNELS 3 Zrotation Yrotation Xrotation
						JOINT LeftHandIndex1
						{
							OFFSET 0.715260 -0.000000 -0.000000 
							CHANNELS 3 Zrotation Yrotation Xrotation
							End Site
							{
								OFFSET 0.000000 0.000000 0.000000 
							}
						}
					}
				}
			}
			JOINT RightArm
			{
				OFFSET -3.136600 1.374050 -0.404650 
				CHANNELS 3 Zrotation Yrotation Xrotation
				JOINT RightForeArm
				{
					OFFSET -5.241900 -0.000000 -0.000000 
					CHANNELS 3 Zrotation Yrotation Xrotation
					JOINT RightHand
					{
						OFFSET -3.444170 -0.000000 -0.000000 
						CHANNELS 3 Zrotation Yrotation Xrotation
						JOINT RightHandIndex1
						{
							OFFSET -0.622530 -0.000000 -0.000000 
							CHANNELS 3 Zrotation Yrotation Xrotation
							End Site
							{
								OFFSET 0.000000 0.000000 0.000000 
							}
						}
					}
				}
			}
		}
	}
}
MOTION
Frames: 10
Frame Time: 0.041667
-10.092424 17.327459 1.639605 -8.082946 56.080798 -5.287255 -12.203029 -13.783394 -4.573011 -1.597955 8.266173 22.892317 -2.906686 16.385654 -15.155662 2.888300 -10.512000 -30.651100 33.185390 31.957514 9.414177 3.046385 -6.273127 19.116379 0.051180 -31.127808 -48.276076 -4.557600 -12.867500 38.874600 1.324165 1.034804 -4.086705 -0.862728 0.045339 -1.438338 5.184563 1.634321 10.397445 0.369800 0.993900 12.018800 -87.324147 0.231174 32.581226 18.286898 -26.604756 -5.917039 0.783731 -2.762497 -52.894023 -7.125000 0.000000 0.000000 78.843023 -2.915689 -2.391963 -1.774816 5.540316 -0.079907 0.561581 -0.877316 28.442772 7.125000 0.000000 0.000000 
-10.093524 17.499486 1.648602 -7.638031 56.011265 -4.944231 -12.484954 -15.074682 -5.158896 -1.203443 9.062627 24.976041 -2.780817 15.733738 -13.707200 1.923500 -8.704900 -24.876600 32.657622 31.079715 11.886273 3.776937 -4.130391 13.986978 1.510885 -33.496486 -46.547296 -4.556300 -12.866000 38.868800 1.301984 1.046897 -4.090793 -0.822667 0.073295 -1.493372 5.315877 1.505289 10.366497 0.437300 0.952400 11.959200 -87.449606 0.321856 35.244007 18.895840 -27.325409 -6.195694 0.662745 -2.735805 -49.941103 -7.125000 0.000000 0.000000 79.113710 -2.527921 -2.425730 -1.799010 5.619148 -0.085935 0.480445 -0.910942 29.158806 7.125000 0.000000 0.000000 
-10.108317 17.502485 1.649001 -7.519338 56.042324 -4.839862 -12.496555 -15.031571 -5.397265 -1.150600 9.177213 25.268178 -2.743198 15.598554 -13.724255 1.964800 -8.792400 -25.148100 32.501880 30.841999 12.413351 3.932041 -3.603575 12.731268 1.923789 -34.128438 -46.040511 -4.537200 -12.842800 38.782900 1.293656 1.046999 -4.087039 -0.821106 0.075989 -1.534740 5.476858 1.344176 10.370612 0.538500 0.895600 11.935200 -87.567909 0.305707 37.780018 19.504803 -28.027226 -6.481431 0.538922 -2.713805 -46.719235 -7.125000 0.000000 0.000000 79.313038 -2.414366 -2.493501 -1.988356 5.989990 -0.110486 0.410043 -0.929292 29.986122 7.125000 0.000000 0.000000 
-10.125410 17.506883 1.651400 -7.511252 56.069785 -4.823520 -12.424810 -15.049801 -5.733881 -1.063697 9.358697 25.740852 -2.700603 15.450722 -13.794383 2.054700 -8.979100 -25.730000 32.374393 30.442093 13.398745 4.184965 -2.659522 10.497858 2.659634 -35.281055 -45.194675 -4.489500 -12.784700 38.567900 1.289979 1.053967 -4.094880 -0.823903 0.083786 -1.607934 5.614203 1.179069 10.477659 0.636500 0.835100 12.005600 -87.630694 0.245816 40.107983 20.202312 -28.815307 -6.824588 0.438446 -2.695337 -43.916962 -7.125000 0.000000 0.000000 79.581405 -2.500185 -2.574760 -2.330745 6.634438 -0.155600 0.327993 -0.947461 31.011763 7.125000 0.000000 0.000000 
-10.138605 17.510781 1.656298 -7.449191 56.152299 -4.737938 -12.408119 -15.115089 -5.748643 -1.081378 9.329509 25.641704 -2.721596 15.506671 -13.670068 2.117600 -9.106800 -26.129900 32.332981 30.407206 13.263381 4.179360 -2.696482 10.568783 2.705710 -35.353099 -45.143756 -4.449200 -12.735300 38.385400 1.284719 1.042819 -4.092142 -0.836162 0.076818 -1.612618 5.612315 1.006200 10.557149 0.619900 0.761900 12.077700 -87.630582 0.123173 42.310432 20.971043 -29.672366 -7.216586 0.353621 -2.665950 -41.302557 -7.125000 0.000000 0.000000 79.930403 -2.673609 -2.641840 -2.880387 7.644344 -0.234470 0.231221 -0.969581 32.439823 7.125000 0.000000 0.000000 
-10.149300 17.513280 1.663295 -7.352706 56.151552 -4.634674 -12.421514 -15.157290 -5.730633 -1.096314 9.307311 25.571781 -2.734764 15.557549 -13.655528 2.100800 -9.073000 -26.023800 32.300868 30.437365 13.197417 4.175253 -2.718836 10.610282 2.734432 -35.388150 -45.098408 -4.431900 -12.713900 38.306800 1.279236 1.072247 -4.078217 -0.858448 0.091623 -1.570738 5.498948 0.848624 10.630419 0.502700 0.693600 12.165400 -87.604972 0.033748 45.378633 21.548689 -30.307904 -7.505014 0.150099 -2.623715 -35.562906 -7.125000 0.000000 0.000000 80.221708 -3.006492 -2.696593 -3.667315 9.046650 -0.366988 0.135605 -0.963673 34.196946 7.125000 0.000000 0.000000 
-10.161895 17.515479 1.670292 -7.304969 56.061016 -4.522367 -12.379910 -15.141226 -5.780894 -1.107091 9.290201 25.512164 -2.763971 15.656221 -13.595986 2.170800 -9.213100 -26.464200 32.290740 30.584968 13.082525 4.170817 -2.747329 10.648619 2.718067 -35.361492 -45.119208 -4.471600 -12.762900 38.487100 1.274966 1.130172 -4.074196 -0.878494 0.120435 -1.591200 5.450675 0.747211 10.594345 0.432600 0.652400 12.131400 -87.699036 -0.332238 46.275308 22.581100 -31.410068 -8.074325 0.175282 -2.585593 -35.138208 -7.125000 0.000000 0.000000 80.559964 -3.264857 6.664802 -4.593003 10.679609 -0.527068 0.248868 -0.901667 26.521769 7.125000 0.000000 0.000000 
-10.170591 17.516679 1.676590 -7.313296 55.998303 -4.442621 -12.305911 -15.114508 -5.856518 -1.112740 9.278032 25.467695 -2.774625 15.674406 -13.531583 2.211100 -9.292600 -26.715000 32.293159 30.701967 12.964077 4.167600 -2.772387 10.679491 2.673782 -35.306609 -45.193433 -4.519000 -12.820700 38.701100 1.279342 1.134624 -4.071862 -0.862823 0.120574 -1.598840 5.630336 0.730363 10.556824 0.566300 0.657400 12.050300 -87.826313 -0.535496 47.011978 23.745328 -32.622763 -8.741857 0.208839 -2.549783 -34.718842 -7.125000 0.000000 0.000000 80.819062 -3.376750 13.295443 -5.477113 12.179635 -0.700882 0.310812 -0.858763 21.237526 7.125000 0.000000 0.000000 
-10.174389 17.517378 1.684087 -7.336131 55.954270 -4.417144 -12.254223 -15.124329 -5.865868 -1.118015 9.268178 25.438525 -2.788158 15.722208 -13.540994 2.199900 -9.270500 -26.645300 32.333818 30.761061 12.923714 4.165495 -2.788940 10.705667 2.686014 -35.330055 -45.183111 -4.514200 -12.814900 38.679300 1.290130 1.125074 -4.067742 -0.816820 0.112414 -1.576288 5.852700 0.695117 10.629793 0.750000 0.655600 12.064500 -87.924506 -0.670372 47.948916 25.044272 -33.924721 -9.505047 0.241432 -2.507777 -34.628416 -7.125000 0.000000 0.000000 81.056785 -3.372377 18.658914 -6.416622 13.724851 -0.908990 0.352443 -0.826794 16.991679 7.125000 0.000000 0.000000 
-10.177288 17.516479 1.693083 -7.330902 55.878617 -4.416226 -12.248107 -15.205517 -5.779858 -1.127764 9.258556 25.416696 -2.831071 15.914277 -13.644545 2.247500 -9.363500 -26.939300 32.400949 30.827949 12.944854 4.161438 -2.806065 10.744157 2.700156 -35.344232 -45.150340 -4.502000 -12.800100 38.624600 1.292226 1.168354 -4.065928 -0.805416 0.132026 -1.601529 5.959452 0.633887 10.694402 0.837400 0.635700 12.085900 -87.994588 -0.884364 49.039652 26.286924 -35.109945 -10.246036 0.250511 -2.463962 -34.726527 -7.125000 0.000000 0.000000 81.449490 -3.236348 22.782988 -7.442291 15.338243 -1.170498 0.375453 -0.726831 13.547623 7.125000 0.000000 0.000000 
